# File created by Blade
# Date/Time:  Tue Jan 27 18:02:00 2015
#---------------------------------------------------------
:version 1.10
:name HOM
:units
  mass 1.0
  length 1.000000
  angle deg
:documentation
     Acclaim Skeleton File
:root
   axis xyz
   order TX TY TZ RX RY RZ
   position 0.000000 0.000000 0.000000
   orientation 0 0 0
:bonedata
   begin
      id 1
      name Spine_dum
      direction 0.000000 1.000000 0.000000
      length 5.195262
      axis 0.0 0.0 0.0 xyz
   end
   begin
      id 2
      name LeftUpLeg_dum
      direction 1.000000 0.000000 0.000000
      length 3.351363
      axis 0.0 0.0 0.0 xyz
   end
   begin
      id 3
      name RightUpLeg_dum
      direction -1.000000 0.000000 0.000000
      length 3.351363
      axis 0.0 0.0 0.0 xyz
   end
   begin
      id 4
      name Spine
      direction 0.000000 1.000000 0.000000
      length 0.000000
      axis 0.0 0.0 0.0 xyz
      dof rx ry rz
   end
   begin
      id 5
      name Spine_dum1
      direction 0.000000 1.000000 0.000000
      length 15.653875
      axis 0.0 0.0 0.0 xyz
   end
   begin
      id 6
      name Spine_dum2
      direction 0.000000 1.000000 0.000000
      length 10.329768
      axis 0.0 0.0 0.0 xyz
   end
   begin
      id 7
      name Spine_dum3
      direction 0.000000 1.000000 0.000000
      length 10.329768
      axis 0.0 0.0 0.0 xyz
   end
   begin
      id 8
      name Head
      direction 0.000000 1.000000 0.000000
      length 4.527550
      axis 0.0 0.0 0.0 xyz
      dof rx ry rz
   end
   begin
      id 9
      name LeftShoulder
      direction 1.000000 0.000000 0.000000
      length 6.996006
      axis 0.0 0.0 -90.0 xyz
      dof rx ry rz
   end
   begin
      id 10
      name LeftArm
      direction 1.000000 0.000000 0.000000
      length 10.209302
      axis 0.0 0.0 -90.0 xyz
      dof rx ry rz
   end
   begin
      id 11
      name LeftForeArm
      direction 1.000000 0.000000 0.000000
      length 8.563163
      axis 0.0 0.0 -90.0 xyz
      dof ry rz rx
   end
   begin
      id 12
      name LeftHand
      direction 0.000000 0.000000 0.000000
      length 0.000000
      axis 0.0 0.0 -90.0 xyz
      dof rx ry rz
   end
   begin
      id 13
      name LeftHand_dum1
      direction 0.000000 0.000000 0.000000
      length 0.000000
      axis 0.0 0.0 -90.0 xyz
   end
   begin
      id 14
      name LeftHand_dum2
      direction 1.000000 0.000000 0.000000
      length 3.937000
      axis 0.0 0.0 -90.0 xyz
   end
   begin
      id 15
      name LeftHandThumb1
      direction 0.000000 0.000000 1.000000
      length 3.937000
      axis 0.0 0.0 -90.0 xyz
      dof rx rz ry
   end
   begin
      id 16
      name RightShoulder
      direction -1.000000 0.000000 0.000000
      length 6.996006
      axis 0.0 0.0 90.0 xyz
      dof rx ry rz
   end
   begin
      id 17
      name RightArm
      direction -1.000000 0.000000 0.000000
      length 10.209302
      axis 0.0 0.0 90.0 xyz
      dof rx ry rz
   end
   begin
      id 18
      name RightForeArm
      direction -1.000000 0.000000 0.000000
      length 8.563163
      axis 0.0 0.0 90.0 xyz
      dof ry rz rx
   end
   begin
      id 19
      name RightHand
      direction 0.000000 0.000000 0.000000
      length 0.000000
      axis 0.0 0.0 90.0 xyz
      dof rx ry rz
   end
   begin
      id 20
      name RightHand_dum1
      direction 0.000000 0.000000 0.000000
      length 0.000000
      axis 0.0 0.0 90.0 xyz
   end
   begin
      id 21
      name RightHand_dum2
      direction -1.000000 0.000000 0.000000
      length 3.937000
      axis 0.0 0.0 90.0 xyz
   end
   begin
      id 22
      name RightHandThumb1
      direction 0.000000 0.000000 1.000000
      length 3.937000
      axis 0.0 0.0 90.0 xyz
      dof rx rz ry
   end
   begin
      id 23
      name LeftUpLeg
      direction 0.000000 -1.000000 0.000000
      length 16.346831
      axis 0.0 0.0 0.0 xyz
      dof rx ry rz
   end
   begin
      id 24
      name LeftLeg
      direction 0.000000 -1.000000 0.000000
      length 13.959795
      axis 0.0 0.0 0.0 xyz
      dof rx ry rz
   end
   begin
      id 25
      name LeftFoot
      direction 0.000000 -0.258819 0.965926
      length 5.165550
      axis 15.0 0.0 0.0 xyz
      dof rx ry rz
   end
   begin
      id 26
      name LeftToeBase
      direction 0.000000 0.000000 1.000000
      length 2.952750
      axis 0.0 0.0 0.0 xyz
      dof rx ry rz
   end
   begin
      id 27
      name RightUpLeg
      direction 0.000000 -1.000000 0.000000
      length 16.346831
      axis 0.0 0.0 0.0 xyz
      dof rx ry rz
   end
   begin
      id 28
      name RightLeg
      direction 0.000000 -1.000000 0.000000
      length 13.959795
      axis 0.0 0.0 0.0 xyz
      dof rx ry rz
   end
   begin
      id 29
      name RightFoot
      direction 0.000000 -0.258819 0.965926
      length 5.165550
      axis 15.0 0.0 0.0 xyz
      dof rx ry rz
   end
   begin
      id 30
      name RightToeBase
      direction 0.000000 0.000000 1.000000
      length 2.952750
      axis 0.0 0.0 0.0 xyz
      dof rx ry rz
   end
:hierarchy
   begin
      root Spine_dum LeftUpLeg_dum RightUpLeg_dum
      Spine_dum Spine
      LeftUpLeg_dum LeftUpLeg
      RightUpLeg_dum RightUpLeg
      Spine Spine_dum1 Spine_dum2 Spine_dum3
      Spine_dum1 Head
      Spine_dum2 LeftShoulder
      Spine_dum3 RightShoulder
      LeftShoulder LeftArm
      LeftArm LeftForeArm
      LeftForeArm LeftHand
      LeftHand LeftHand_dum1 LeftHand_dum2
      LeftHand_dum1 LeftHandThumb1
      RightShoulder RightArm
      RightArm RightForeArm
      RightForeArm RightHand
      RightHand RightHand_dum1 RightHand_dum2
      RightHand_dum1 RightHandThumb1
      LeftUpLeg LeftLeg
      LeftLeg LeftFoot
      LeftFoot LeftToeBase
      RightUpLeg RightLeg
      RightLeg RightFoot
      RightFoot RightToeBase
   end

# File created by Blade
# Date/Time:  Tue Jan 27 18:01:49 2015
# Frame Rate: 120.000 fps
#------------------------------------------------------
:FULLY-SPECIFIED
:DEGREES
214
root -0.872943 31.973442 -6.179058 6.255852 14.496911 2.930240
Spine -7.635170 -3.320256 -4.784952
Head 7.264678 -18.237826 -2.559110
LeftShoulder -13.566905 16.029325 4.996218
LeftArm 19.968841 30.058073 -77.213413
LeftForeArm -1.494847 0.000000 14.260772
LeftHand -11.399113 0.000000 -6.177718
LeftHandThumb1 -26.253704 0.000000 33.147579
RightShoulder -19.609072 37.757158 -59.331421
RightArm 94.688826 50.336006 113.467255
RightForeArm 24.637470 -0.000000 124.052497
RightHand -6.055638 -0.000000 -2.976207
RightHandThumb1 -24.326973 -0.000000 -32.862282
LeftUpLeg -1.554846 -6.735876 -0.722436
LeftLeg 0.464074 -0.000000 -0.000000
LeftFoot -16.234334 14.903717 -23.301617
LeftToeBase 8.472359 -0.000000 -0.000000
RightUpLeg 1.437442 -8.386885 -3.616193
RightLeg -0.119902 -0.000000 0.000000
RightFoot -16.974447 -15.567960 12.166723
RightToeBase 4.499729 -0.000000 -0.000000
215
root -0.890790 31.972337 -6.161657 6.265438 14.648225 2.941023
Spine -7.656168 -3.354014 -4.773357
Head 7.555887 -17.869480 -2.603017
LeftShoulder -13.567250 16.112024 5.117613
LeftArm 20.152062 30.798119 -76.740280
LeftForeArm -0.822455 -0.000000 14.470489
LeftHand -11.359574 0.000000 -6.481426
LeftHandThumb1 -26.253704 0.000000 33.147579
RightShoulder -19.744419 37.755398 -59.417848
RightArm 95.211310 50.510128 113.902195
RightForeArm 25.027284 -0.000000 124.890538
RightHand -5.921016 0.000000 -2.653455
RightHandThumb1 -24.326973 -0.000000 -32.862282
LeftUpLeg -1.540492 -6.853554 -0.673277
LeftLeg 0.433281 -0.000000 -0.000000
LeftFoot -16.183929 14.874230 -23.319597
LeftToeBase 8.333582 -0.000000 -0.000000
RightUpLeg 1.577966 -8.519906 -3.580003
RightLeg -0.328908 -0.000000 0.000000
RightFoot -16.896747 -15.589835 12.135612
RightToeBase 4.511136 -0.000000 -0.000000
216
root -0.905915 31.972030 -6.146201 6.284339 14.798001 2.957683
Spine -7.688685 -3.381766 -4.757123
Head 7.861249 -17.505858 -2.586684
LeftShoulder -13.537005 16.308938 5.223214
LeftArm 20.465460 31.614198 -76.179413
LeftForeArm -0.337675 -0.000000 14.722477
LeftHand -11.479884 -0.000000 -6.158307
LeftHandThumb1 -26.253704 0.000000 33.147579
RightShoulder -19.850067 37.648404 -59.431402
RightArm 95.840161 50.625694 114.318865
RightForeArm 25.381594 -0.000000 125.710135
RightHand -5.898640 0.000000 -2.948232
RightHandThumb1 -24.326973 -0.000000 -32.862282
LeftUpLeg -1.541139 -6.964677 -0.634346
LeftLeg 0.412659 -0.000000 -0.000000
LeftFoot -16.154821 14.816511 -23.363666
LeftToeBase 8.332044 -0.000000 -0.000000
RightUpLeg 1.685792 -8.701762 -3.548524
RightLeg -0.492065 -0.000000 0.000000
RightFoot -16.833245 -15.595975 12.072157
RightToeBase 4.535130 -0.000000 -0.000000
217
root -0.923797 31.970918 -6.128998 6.291020 14.962883 2.972768
Spine -7.708559 -3.407914 -4.756287
Head 8.186227 -17.101507 -2.539864
LeftShoulder -13.475614 16.361009 5.365926
LeftArm 20.665672 32.544739 -75.618148
LeftForeArm 0.030256 -0.000000 14.948534
LeftHand -11.446121 0.000000 -6.137034
LeftHandThumb1 -26.253704 0.000000 33.147579
RightShoulder -20.046308 37.694033 -59.562813
RightArm 96.120834 50.815895 114.516943
RightForeArm 25.756463 -0.000000 126.549850
RightHand -5.982216 0.000000 -3.144385
RightHandThumb1 -24.326973 -0.000000 -32.862282
LeftUpLeg -1.536868 -7.029061 -0.593086
LeftLeg 0.406497 -0.000000 -0.000000
LeftFoot -16.119998 14.726438 -23.400028
LeftToeBase 8.357709 -0.000000 -0.000000
RightUpLeg 1.826020 -8.851125 -3.514627
RightLeg -0.686972 -0.000000 0.000000
RightFoot -16.764943 -15.609159 12.052675
RightToeBase 4.516145 -0.000000 -0.000000
218
root -0.940252 31.969878 -6.116489 6.323140 15.095410 2.979600
Spine -7.735185 -3.440989 -4.736496
Head 8.476286 -16.498430 -2.427343
LeftShoulder -13.451038 16.347885 5.495326
LeftArm 20.824595 33.515494 -75.081679
LeftForeArm 0.227601 0.000000 15.148673
LeftHand -11.148243 0.000000 -5.544212
LeftHandThumb1 -26.253704 0.000000 33.147579
RightShoulder -20.297703 37.839476 -59.757071
RightArm 96.267108 51.051539 114.639522
RightForeArm 26.117170 -0.000000 127.362254
RightHand -5.907656 -0.000000 -3.473205
RightHandThumb1 -24.326973 -0.000000 -32.862282
LeftUpLeg -1.575103 -7.015857 -0.551434
LeftLeg 0.421196 -0.000000 -0.000000
LeftFoot -16.059836 14.613572 -23.341992
LeftToeBase 8.304554 -0.000000 -0.000000
RightUpLeg 1.909252 -8.987838 -3.475343
RightLeg -0.850160 -0.000000 0.000000
RightFoot -16.694328 -15.607753 12.008163
RightToeBase 4.498632 -0.000000 -0.000000
